<svg id="Capa_1" data-name="Capa 1" xmlns="http://www.w3.org/2000/svg" viewBox="0 0 4058.55 865.53"><defs><style>.cls-1{fill:#7bcdf4;}.cls-2{fill:#6fb32d;}.cls-3{fill:#f4e284;}.cls-4{fill:#f5a359;}.cls-5{fill:#7bc8ce;}.cls-6{fill:#bd4b51;}.cls-7{fill:#5b8e7d;}.cls-8{fill:#7bb73e;}.cls-9{font-size:460.64px;fill:#f4e283;font-family:Rubik-BoldItalic, Rubik;font-weight:700;font-style:italic;}.cls-10{letter-spacing:-0.04em;}.cls-11,.cls-12,.cls-13{fill:#f6a359;}.cls-11{letter-spacing:-0.01em;}.cls-13{letter-spacing:-0.02em;}</style></defs><circle class="cls-1" cx="616.6" cy="415" r="405.96"/><path class="cls-2" d="M565.66,487l.89.59c20,13.16,44.26,24.25,74,31.42,19.33,5.25,24.47,10.84,25,15.32,1.4,11-24.18,18.94-23.17,34.72.41,6.39,4.72,6.89,4.48,12.94-.39,10.15-12.75,14.7-28.1,27.22-7.48,6.11-30.93,25.24-26.42,35.2,3.43,7.56,19.79,2.88,38.45,16.22,1.28.91,13.47,9.62,11.71,12.68a1.32,1.32,0,0,1-.64.58c-4.46,2-16.21,3.07-32.43-5.44-21.63-11.35-37.51-20.74-54.73-31.66-37.06-23.5-46.87-25.32-54.34-39.82-6.45-12.51-2.48-17.61-9-27.58C480.08,552,454.58,546.85,435,545.19c-9.68-11.76-12-21.62-12.33-28.59-.61-14.46,7.49-20.59,2.76-32.35-3.5-8.71-11.72-14.55-15.28-17.22a55.89,55.89,0,0,0-15.53-8c-17.84-6.13-53.52-8.51-58-13.28S311.88,441,290,420.93s-36.48-10.21-43.37-13.28-15.41-5.79-18.65-14c-4.19-10.53,3.8-15.18,2-30.29a27.77,27.77,0,0,0-2.23-8.4c-2.58-5.68-6.3-7.39-8.22-13.48a22.85,22.85,0,0,1-.94-5.16c-.65-7.36,1.79-12.28,4.89-21.32,1.64-4.78,2.8-9.71,4.36-14.51C239.29,265.12,239,266,239.61,264.12c11.24-32.22,36.79-70.76,39.24-74.42a408,408,0,0,1,85.89-93.1,192.28,192.28,0,0,1,38.32-12c15.45-3.12,25.92-3.23,66.73-2.39,55.93,1.16,65.94,2,67.39,7,1,3.59-2.17,9.79-20.07,21.24-28.26-3.43-37.26-.16-39.15,4.42-1.69,4.07,2.46,8.64,0,14s-9.53,7.31-15.68,8.16a159.73,159.73,0,0,1-38.45,36.44c-26.26,17.49-62.3,29.61-60.61,36,.22.83.07,1.74,3,4.18,2.43,2,1.22,17,32.43,22.13s38.92,5.1,43.79-4.43,17.23-43.57,22.9-44.08,15.2-7.66,29-4.6,21.08,1.87,22.9,7.66-2.23,20.6,0,24.51,14.19,15.15,10.34,22-38.92,10.89-44,14.81-18.44,13.1-13.17,18.55,2.43,5.11,6.69,6.3,20.67-.34,26.55-3.07,21.08.51,5.88,16.34-21.28,14.81-43.18,14.47S429,318.8,426.4,322s-11.55,23.15-15.61,24-22.09,5.28-21.08,14.81,10.75,21.79,6.89,24.34-3.24,11-38.71-10c0,0-29.19-4.45-39.33,6.1s-17,17.87-11.14,25.87,15.81,15,22.29,14.64,28,1.53,28.79-1.7-9.53,7.15,2.83,15.49,29.6,6.46,36.49,13.61,21.89,16,30.81,16.17,30-3.74,34.26-1.36,25.13,16.17,30.4,13.11c17.58-10.22,28.46-3.61,50.68,1.36A76.7,76.7,0,0,1,565.66,487Z"/><path class="cls-2" d="M654,309s6.65,18.76,31.76,12.69,34.72,1.66,47.28-2.2,24.38-3.31,40.63-32.56,59.1,1.65,68,13.79,30.29,44.7,22.9,18.77-8.13-31.46-17-38.63-16.26-9.94-6.65-21,49.49,14.35,42.11,28.69,20.68,29.8,20.68,24.28,3-55.73,20.69-50.21,53.19,8.27,46.54,17.66S928.1,299,938.44,315.59s40.63,7.18,36.94,19.87-17,28.7-41.37,24.28-20.19-13.06-47.28-9.38-44.82,2.57-51.71-8.83-19.7-14.35-37.43-14-49.74.37-72.4,5.15S672,354.77,654,378.32,631.62,434.24,636.54,442s26.6,36.43,46.79,34.59,75.84-9.2,87.66-1.48,34.48,7.73,27.09,33.85.49,42.31-21.67,59.6S705,631.43,705,637.31s0,13.25,18.22,3.68,57.13-30.53,68-39.73,30-8.09,59.59-29.8,83.72-62.17,99-76.52,43.83-12.14,18.71-27.22S930.07,425.41,937,402.23s18.22-22.44,18.22-22.44,13.79,1.84,15.26,16.92-2.46,29.07.5,33.48,13.29,19.13,17.23,0c3.3-16,1.09-23.74,4.58-29.08a12.1,12.1,0,0,1,2.81-2.92c9.17-7.72,22.5-4.56,26.48-3.45a416.94,416.94,0,0,0-17.73-100.39c-9.78-31.84-20.64-53.3-28.24-68.13-15-29.25-22.81-44.11-39.31-55.41-20.37-13.95-42.77-15.44-55.95-15.07,0,0-38.32-31.27-56.1-37.89s-5.46,12.51-5.46,12.51-61.07-42.31-71.41-40.1-23.64-2.21-28.08,14S735,128.52,735,128.52,723.22,144,726.18,152.8s21.17,18,32,16.56,20.68,1.1,24.62,8.46,6.41,13.24,12.32,11.4,12.8-1.47,11.32-9.93,1.48-6.62-10.83-16.92S772,142.13,780.84,139.92s22.66-2.57,25.61,3,20.2,19.13,29.06,17.66,25.61,5.52,29.55,9.93,14.28,9.2,4.93,21-31,28-61.07,17.29-50.73,4.78-50.73,4.78,6.4,13.25,1.48,19.87-17.24,14.35-26.11,16.55,20.2,21.71.5,28S718.3,290.76,694.17,290,651.32,299.22,654,309Z"/><path class="cls-3" d="M14.3,424.34C73.72,472.25,236,590.12,478,612.26c246.55,22.55,430.33-67.61,496.83-104.37q68.76,121.26,137.53,242.53c-76,43.78-226.42,115.14-420,107C269.88,839.71,35.62,460.16,14.3,424.34Z"/><path class="cls-4" d="M707.25,677.7l35-10.67,59.12,42S966,595.11,968.61,598.93s-24.16-12.28-24.16-12.28-31.92,16.59-43.13,9.38-6.07-5.7-7.94-12.31.85-4.13,1.38-7.76S881,577.2,881,577.2s-8.35-2.13-7.11-8.54,3.44-10.39,4.53-15.46l-114-54.15,40.67-20.69,276.68,48.16,127.53-79s68.53-23.67,134.29-11.66c0,0,24.55,20.1-13.66,72.27s-129.29,95.21-129.29,95.21l-123,204.8-45.1,22.52,1.62-8.68,9.33-5.54,13.93-141.61S906.08,745,882.83,747l-78.37,18.8L815,780.12,795.69,794l-35.1-18.24s-22.43,5.75-35.93-1.84,4-7.88,4-7.88l-54.48-30.7L694,725.75l35.9,5.78Z"/><path class="cls-5" d="M1328,433.69c-7.41-.75-15.57-1.24-24.36-1.28a254.31,254.31,0,0,0-25.95,1.24c-.67.35-8.06,4.23-8.72,12.25-.37,4.53,1.82,10.17,9.71,16.65Z"/><path class="cls-6" d="M286.77,240.66l31.32-39.83a52.07,52.07,0,0,0,13.25-24.55A50.05,50.05,0,0,0,332.39,166a75.42,75.42,0,0,0-4.77-21c-9.53-23.15-39.14-24.17-39.14-24.17s-17.37-1.36-32.34,14a45,45,0,0,0-11,16.45c-1.07,2.87-4.58,12.66-1.76,23.89s11.4,21.62,11.4,21.62h0Z"/><circle class="cls-7" cx="287.34" cy="168.37" r="29.11"/><path class="cls-6" d="M903,223.92l31.32-39.83a52,52,0,0,0,13.25-24.56,49.28,49.28,0,0,0,1-10.27,75.67,75.67,0,0,0-4.76-21c-9.54-23.15-39.15-24.17-39.15-24.17s-17.37-1.37-32.34,14a45.1,45.1,0,0,0-11,16.45c-1.07,2.87-4.58,12.67-1.76,23.89S871,180,871,180h0Z"/><circle class="cls-7" cx="903.57" cy="151.62" r="29.11"/><path class="cls-6" d="M454.18,492.34l31.31-39.83A52,52,0,0,0,498.74,428a49.34,49.34,0,0,0,1.05-10.27,75.64,75.64,0,0,0-4.76-21c-9.54-23.15-39.15-24.17-39.15-24.17s-17.36-1.36-32.34,14a45,45,0,0,0-11,16.45c-1.07,2.87-4.58,12.67-1.76,23.89s11.41,21.62,11.41,21.62h0Z"/><circle class="cls-7" cx="454.74" cy="420.05" r="29.11"/><path class="cls-6" d="M881.86,453.3l31.32-39.83a52.06,52.06,0,0,0,13.24-24.56,48.6,48.6,0,0,0,1.05-10.27,75.67,75.67,0,0,0-4.76-21c-9.53-23.15-39.15-24.17-39.15-24.17s-17.36-1.36-32.34,14a45.16,45.16,0,0,0-11,16.44c-1.06,2.87-4.57,12.67-1.76,23.9s11.41,21.61,11.41,21.61h0Z"/><circle class="cls-7" cx="882.43" cy="381.01" r="29.11"/><path class="cls-8" d="M693.45,169.79s23,3.83,25.27,10.47-2,15.06,2.81,19.41,8.17,10.21,6.38,11.74-13.29,13.28-17,13.53-10.33,13.53-10.33,6.64S709.51,215,710.93,214s5.5-8.42,1.92-14.81-6.38-10.21-14.3-14.29S691.91,182.05,693.45,169.79Z"/><path class="cls-8" d="M689.49,199.78a11.24,11.24,0,0,1,2.3-4.47c.31-.36,3.88-4.43,7.66-3.7,4.06.79,6.67,6.8,5.62,11.49-1.3,5.79-8.36,10.37-12.51,8.17C689.64,209.73,688.26,204.92,689.49,199.78Z"/><text class="cls-9" transform="translate(1387.79 631.51)">M<tspan class="cls-10" x="381.4" y="0">y</tspan><tspan class="cls-11" x="642.59" y="0">T</tspan><tspan class="cls-12" x="924.96" y="0">inerar</tspan><tspan class="cls-13" x="2334.04" y="0">y</tspan></text></svg>